:FULLY-SPECIFIED
:FORCE-ALL-JOINTS-BE-3DOF
:DEGREES
2854
root -3.36926 14.9125 -29.3297 64.9326 -82.2703 -67.3495
lfemur -40.2844 29.4201 -3.17749
ltibia 51.0961 -0 0
lfoot 0.330738 1.81334 -0.423555
ltoes -21.0617 0 0
rfemur -27.298 -14.4879 18.2081
rtibia 69.9897 -0 0
rfoot -27.2604 -20.3639 -0.0392971
rtoes -15.4868 0 0
lowerback 13.2807 4.98255 0.586965
upperback -3.01096 6.93103 1.57814
thorax -10.7938 3.30953 -0.308078
lowerneck -4.09668 6.34972 0.0904053
upperneck 8.99372 8.27324 2.30492
head 3.65408 4.17628 0.924818
lclavicle -8.44547e-15 -1.20817e-14 -1.78652e-30
lhumerus -10.5809 8.31474 84.0698
lradius 81.4686 -0 0
lwrist -18.5402 0 0
lhand -39.116 29.3544 0.0336788
lfingers 7.12502 -0 0
lthumb -12.1146 58.9628 0.0359891
rclavicle -8.44547e-15 -1.20817e-14 -1.78652e-30
rhumerus -47.9728 39.9952 -96.2628
rradius 95.5369 -0 0
rwrist -67.7808 0 0
rhand -1.97723 -29.1392 0.261794
rfingers 7.12502 -0 0
rthumb 23.6755 -57.443 0.318899
2855
root -3.35839 14.9175 -29.3395 63.4349 -82.1705 -65.845
lfemur -40.2154 29.341 -3.17169
ltibia 51.053 -0 0
lfoot 0.287205 1.83444 -0.425982
ltoes -21.1072 0 0
rfemur -27.2716 -14.4513 18.2036
rtibia 69.9102 -0 0
rfoot -27.2235 -20.3647 -0.0389377
rtoes -15.4958 0 0
lowerback 13.2611 4.97547 0.583284
upperback -3.01522 6.92084 1.57867
thorax -10.7872 3.30515 -0.302298
lowerneck -4.10423 6.32128 0.0713486
upperneck 9.00464 8.23536 2.31587
head 3.65867 4.1574 0.929483
lclavicle -8.357e-15 -1.20194e-14 -1.80336e-30
lhumerus -10.6449 8.29004 84.0811
lradius 81.3268 -0 0
lwrist -18.5407 0 0
lhand -39.1026 29.3593 0.0338283
lfingers 7.12502 -0 0
lthumb -12.1016 58.9683 0.0361557
rclavicle -8.357e-15 -1.20194e-14 -1.80336e-30
rhumerus -47.9263 39.9073 -96.2029
rradius 95.3834 -0 0
rwrist -67.6135 0 0
rhand -2.01779 -29.1531 0.263244
rfingers 7.12502 -0 0
rthumb 23.6365 -57.4607 0.32065
2856
root -3.3475 14.9224 -29.3492 61.9728 -82.0653 -64.3762
lfemur -40.1462 29.2617 -3.16603
ltibia 51.0099 -0 0
lfoot 0.243572 1.85561 -0.428397
ltoes -21.1528 0 0
rfemur -27.2452 -14.4146 18.1991
rtibia 69.8305 -0 0
rfoot -27.1866 -20.3655 -0.0385748
rtoes -15.5048 0 0
lowerback 13.2414 4.96837 0.579591
upperback -3.01949 6.91062 1.5792
thorax -10.7805 3.30075 -0.296504
lowerneck -4.11178 6.29278 0.0522477
upperneck 9.01555 8.1974 2.32682
head 3.66326 4.13849 0.934156
lclavicle -8.26815e-15 -1.19568e-14 -1.82019e-30
lhumerus -10.7088 8.26508 84.0925
lradius 81.1847 -0 0
lwrist -18.5412 0 0
lhand -39.0891 29.3642 0.0339767
lfingers 7.12502 -0 0
lthumb -12.0886 58.9738 0.0363212
rclavicle -8.26815e-15 -1.19568e-14 -1.82019e-30
rhumerus -47.8798 39.8193 -96.143
rradius 95.2295 -0 0
rwrist -67.4457 0 0
rhand -2.05844 -29.1671 0.264686
rfingers 7.12502 -0 0
rthumb 23.5974 -57.4785 0.32239
2857
root -3.33657 14.9274 -29.359 60.547 -81.9549 -62.9437
lfemur -40.0771 29.1822 -3.1605
ltibia 50.9667 -0 0
lfoot 0.199838 1.87685 -0.4308
ltoes -21.1985 0 0
rfemur -27.2188 -14.3778 18.1947
rtibia 69.7507 -0 0
rfoot -27.1496 -20.3662 -0.0382085
rtoes -15.5138 0 0
lowerback 13.2217 4.96125 0.575888
upperback -3.02375 6.90037 1.57973
thorax -10.7738 3.29634 -0.290695
lowerneck -4.11933 6.26423 0.0331029
upperneck 9.02646 8.15936 2.33779
head 3.66786 4.11955 0.938839
lclavicle -8.17892e-15 -1.18941e-14 -1.83699e-30
lhumerus -10.7726 8.23986 84.104
lradius 81.0423 -0 0
lwrist -18.5417 0 0
lhand -39.0756 29.3692 0.0341239
lfingers 7.12502 -0 0
lthumb -12.0756 58.9794 0.0364854
rclavicle -8.17892e-15 -1.18941e-14 -1.83699e-30
rhumerus -47.8332 39.7312 -96.0832
rradius 95.0752 -0 0
rwrist -67.2773 0 0
rhand -2.09918 -29.1811 0.266121
rfingers 7.12502 -0 0
rthumb 23.5582 -57.4963 0.324122
2858
root -3.32561 14.9325 -29.3688 59.1579 -81.8394 -61.5478
lfemur -40.0079 29.1025 -3.15512
ltibia 50.9235 -0 0
lfoot 0.156004 1.89816 -0.43319
ltoes -21.2444 0 0
rfemur -27.1923 -14.341 18.1903
rtibia 69.6706 -0 0
rfoot -27.1125 -20.3668 -0.0378389
rtoes -15.5228 0 0
lowerback 13.202 4.95411 0.572173
upperback -3.02801 6.89009 1.58026
thorax -10.7671 3.29192 -0.28487
lowerneck -4.12688 6.23561 0.0139148
upperneck 9.03737 8.12125 2.34878
head 3.67245 4.10056 0.94353
lclavicle -8.08932e-15 -1.18311e-14 -1.85376e-30
lhumerus -10.8364 8.21438 84.1154
lradius 80.8997 -0 0
lwrist -18.5423 0 0
lhand -39.0621 29.3741 0.03427
lfingers 7.12502 -0 0
lthumb -12.0625 58.985 0.0366485
rclavicle -8.08932e-15 -1.18311e-14 -1.85376e-30
rhumerus -47.7866 39.643 -96.0234
rradius 94.9206 -0 0
rwrist -67.1085 0 0
rhand -2.14001 -29.1952 0.267547
rfingers 7.12502 -0 0
rthumb 23.5189 -57.5142 0.325844
2859
root -3.31462 14.9375 -29.3786 57.8057 -81.7189 -60.1888
lfemur -39.9386 29.0226 -3.14988
ltibia 50.8802 -0 0
lfoot 0.112072 1.91954 -0.435568
ltoes -21.2904 0 0
rfemur -27.1658 -14.3041 18.1859
rtibia 69.5904 -0 0
rfoot -27.0753 -20.3674 -0.0374659
rtoes -15.5317 0 0
lowerback 13.1822 4.94695 0.568448
upperback -3.03227 6.87978 1.58079
thorax -10.7603 3.28748 -0.279031
lowerneck -4.13444 6.20694 -0.00531639
upperneck 9.04828 8.08306 2.35977
head 3.67705 4.08154 0.948229
lclavicle -7.99934e-15 -1.17679e-14 -1.87051e-30
lhumerus -10.9 8.18865 84.1269
lradius 80.7569 -0 0
lwrist -18.5429 0 0
lhand -39.0485 29.379 0.034415
lfingers 7.12502 -0 0
lthumb -12.0494 58.9905 0.0368103
rclavicle -7.99934e-15 -1.17679e-14 -1.87051e-30
rhumerus -47.7401 39.5547 -95.9636
rradius 94.7657 -0 0
rwrist -66.9391 0 0
rhand -2.18092 -29.2093 0.268966
rfingers 7.12502 -0 0
rthumb 23.4796 -57.5322 0.327556
